<svg class="border shadow-md" viewBox="0 0 872.96 491.04" xmlns="http://www.w3.org/2000/svg" preserveAspectRatio="none" style="width: 872.96px; height: 491.04px;"><rect class="bg" id="bg" x="0" y="0" width="872.96" height="491.04" fill="#ffffff"/><path d="M 0 -20.46 L 0 -20.46&#10;                L 621.00 -10.23&#10;                L 872.96 -20.46 L 872.96 -20.46&#10;                L 1163.95 -2.46&#10;                L 1745.92 -20.46  V 491.04 H 0 V -20.46 Z" fill="#030084"/><path d="M 0 0 L 0 0.00&#10;                L 290.99 17.00&#10;                L 872.96 0.00 L 872.96 0.00&#10;                L 1178.96 10.23&#10;                L 1745.92 0.00  V 491.04 H 0 V 0.00 Z" fill="#060081"/><path d="M 0 20.46 L 0 20.46&#10;                L 290.99 38.46&#10;                L 872.96 20.46 L 872.96 20.46&#10;                L 1291.96 30.69&#10;                L 1745.92 20.46  V 491.04 H 0 V 20.46 Z" fill="#09007e"/><path d="M 0 40.92 L 0 40.92&#10;                L 290.99 60.92&#10;                L 872.96 40.92 L 872.96 40.92&#10;                L 1326.96 52.92&#10;                L 1745.92 40.92  V 491.04 H 0 V 40.92 Z" fill="#0c007b"/><path d="M 0 61.38 L 0 61.38&#10;                L 620.00 76.38&#10;                L 872.96 61.38 L 872.96 61.38&#10;                L 1424.96 71.61&#10;                L 1745.92 61.38  V 491.04 H 0 V 61.38 Z" fill="#0f0078"/><path d="M 0 81.84 L 0 81.84&#10;                L 341.00 92.07&#10;                L 872.96 81.84 L 872.96 81.84&#10;                L 1163.95 92.07&#10;                L 1745.92 81.84  V 491.04 H 0 V 81.84 Z" fill="#120075"/><path d="M 0 102.30000000000001 L 0 102.30&#10;                L 290.99 112.53&#10;                L 872.96 102.30 L 872.96 102.30&#10;                L 1163.95 121.30&#10;                L 1745.92 102.30  V 491.04 H 0 V 102.30 Z" fill="#150072"/><path d="M 0 122.76 L 0 122.76&#10;                L 290.99 132.99&#10;                L 872.96 122.76 L 872.96 122.76&#10;                L 1163.95 132.99&#10;                L 1745.92 122.76  V 491.04 H 0 V 122.76 Z" fill="#18006f"/><path d="M 0 143.22 L 0 143.22&#10;                L 290.99 153.45&#10;                L 872.96 143.22 L 872.96 143.22&#10;                L 1163.95 155.22&#10;                L 1745.92 143.22  V 491.04 H 0 V 143.22 Z" fill="#1b006c"/><path d="M 0 163.68 L 0 163.68&#10;                L 290.99 173.91&#10;                L 872.96 163.68 L 872.96 163.68&#10;                L 1163.95 181.68&#10;                L 1745.92 163.68  V 491.04 H 0 V 163.68 Z" fill="#1e0069"/><path d="M 0 184.14000000000001 L 0 184.14&#10;                L 290.99 194.37&#10;                L 872.96 184.14 L 872.96 184.14&#10;                L 1163.95 202.14&#10;                L 1745.92 184.14  V 491.04 H 0 V 184.14 Z" fill="#210066"/><path d="M 0 204.60000000000002 L 0 204.60&#10;                L 290.99 221.60&#10;                L 872.96 204.60 L 872.96 204.60&#10;                L 1518.96 214.83&#10;                L 1745.92 204.60  V 491.04 H 0 V 204.60 Z" fill="#240063"/><path d="M 0 225.06 L 0 225.06&#10;                L 440.00 235.29&#10;                L 872.96 225.06 L 872.96 225.06&#10;                L 1282.96 235.29&#10;                L 1745.92 225.06  V 491.04 H 0 V 225.06 Z" fill="#270060"/><path d="M 0 245.52 L 0 245.52&#10;                L 290.99 255.75&#10;                L 872.96 245.52 L 872.96 245.52&#10;                L 1163.95 255.75&#10;                L 1745.92 245.52  V 491.04 H 0 V 245.52 Z" fill="#2a005d"/><path d="M 0 265.98 L 0 265.98&#10;                L 316.00 276.21&#10;                L 872.96 265.98 L 872.96 265.98&#10;                L 1163.95 276.21&#10;                L 1745.92 265.98  V 491.04 H 0 V 265.98 Z" fill="#2d005a"/><path d="M 0 286.44 L 0 286.44&#10;                L 290.99 296.67&#10;                L 872.96 286.44 L 872.96 286.44&#10;                L 1163.95 301.44&#10;                L 1745.92 286.44  V 491.04 H 0 V 286.44 Z" fill="#300057"/><path d="M 0 306.90000000000003 L 0 306.90&#10;                L 555.00 319.90&#10;                L 872.96 306.90 L 872.96 306.90&#10;                L 1427.96 322.90&#10;                L 1745.92 306.90  V 491.04 H 0 V 306.90 Z" fill="#330054"/><path d="M 0 327.36 L 0 327.36&#10;                L 431.00 337.59&#10;                L 872.96 327.36 L 872.96 327.36&#10;                L 1163.95 340.36&#10;                L 1745.92 327.36  V 491.04 H 0 V 327.36 Z" fill="#360051"/><path d="M 0 347.82 L 0 347.82&#10;                L 319.00 358.05&#10;                L 872.96 347.82 L 872.96 347.82&#10;                L 1163.95 365.82&#10;                L 1745.92 347.82  V 491.04 H 0 V 347.82 Z" fill="#39004e"/><path d="M 0 368.28000000000003 L 0 368.28&#10;                L 455.00 378.51&#10;                L 872.96 368.28 L 872.96 368.28&#10;                L 1163.95 382.28&#10;                L 1745.92 368.28  V 491.04 H 0 V 368.28 Z" fill="#3c004b"/><path d="M 0 388.74 L 0 388.74&#10;                L 608.00 398.97&#10;                L 872.96 388.74 L 872.96 388.74&#10;                L 1163.95 401.74&#10;                L 1745.92 388.74  V 491.04 H 0 V 388.74 Z" fill="#3f0048"/><path d="M 0 409.20000000000005 L 0 409.20&#10;                L 437.00 425.20&#10;                L 872.96 409.20 L 872.96 409.20&#10;                L 1163.95 425.20&#10;                L 1745.92 409.20  V 491.04 H 0 V 409.20 Z" fill="#420045"/><path d="M 0 429.66 L 0 429.66&#10;                L 290.99 439.89&#10;                L 872.96 429.66 L 872.96 429.66&#10;                L 1467.96 445.66&#10;                L 1745.92 429.66  V 491.04 H 0 V 429.66 Z" fill="#450042"/><path d="M 0 450.12 L 0 450.12&#10;                L 378.00 460.35&#10;                L 872.96 450.12 L 872.96 450.12&#10;                L 1163.95 464.12&#10;                L 1745.92 450.12  V 491.04 H 0 V 450.12 Z" fill="#48003f"/><path d="M 0 470.58000000000004 L 0 470.58&#10;                L 575.00 487.58&#10;                L 872.96 470.58 L 872.96 470.58&#10;                L 1444.96 489.58&#10;                L 1745.92 470.58  V 491.04 H 0 V 470.58 Z" fill="#4b003c"/></svg>